<svg width="217" height="24" viewBox="0 0 217 24" fill="none" xmlns="http://www.w3.org/2000/svg">
<path d="M3.27238 12.0106H8.75204C9.61744 12.0125 10.448 11.67 11.0606 11.0587C11.6731 10.4475 12.0174 9.61761 12.0174 8.75226V3.25856C12.0193 2.39253 12.3651 1.56271 12.9788 0.951647C13.5925 0.340585 14.4238 -0.00166152 15.2898 6.47157e-05H20.7694C21.6372 -0.00539997 22.4714 0.335418 23.0871 0.947086C23.7027 1.55876 24.0489 2.39074 24.0488 3.25856V8.74522C24.0507 9.61126 24.3965 10.4411 25.0102 11.0522C25.6239 11.6632 26.4552 12.0055 27.3212 12.0036H32.8009C33.6663 12.0055 34.4969 11.663 35.1094 11.0517C35.722 10.4405 36.0663 9.61061 36.0663 8.74522V3.25856C36.0681 2.39253 36.4139 1.56271 37.0276 0.951647C37.6413 0.340585 38.4726 -0.00166152 39.3386 6.47157e-05H44.7973C45.6628 -0.00166214 46.4931 0.340807 47.1058 0.952072C47.7186 1.56334 48.0627 2.39318 48.0627 3.25856V8.74522C48.0644 9.61126 48.4103 10.4411 49.0239 11.0522C49.6375 11.6632 50.4691 12.0055 51.335 12.0036H56.8076C57.6718 12.0017 58.5013 12.3432 59.1136 12.953C59.7259 13.5627 60.0713 14.3908 60.073 15.2549V20.7416C60.073 21.607 59.7289 22.4368 59.1162 23.0481C58.5038 23.6594 57.6731 24.0018 56.8076 24H51.3281C50.4618 24.0018 49.6306 23.6596 49.017 23.0485C48.4034 22.4375 48.0576 21.6076 48.0554 20.7416V15.2549C48.0554 14.3896 47.7113 13.5597 47.099 12.9484C46.4862 12.3372 45.6555 11.9947 44.7905 11.9966H39.3106C37.5099 11.9966 36.0491 13.4543 36.0452 15.2549V20.7416C36.0452 21.607 35.701 22.4368 35.0884 23.0481C34.4758 23.6594 33.6452 24.0018 32.7798 24H27.3002C25.5104 23.9924 24.0603 22.5454 24.0488 20.7556V15.2549C24.0488 14.3896 23.7046 13.5597 23.092 12.9484C22.4794 12.3372 21.6489 11.9947 20.7835 11.9966H15.3038C14.4353 11.991 13.6004 12.3316 12.9837 12.943C12.367 13.5545 12.0192 14.3865 12.0174 15.2549V20.7416C12.0174 21.607 11.6731 22.4368 11.0606 23.0481C10.448 23.6594 9.61744 24.0018 8.75204 24H3.27238C2.40634 24.0018 1.57505 23.6596 0.961362 23.0485C0.347669 22.4375 0.00185947 21.6076 0 20.7416V15.2549C0.0115693 13.457 1.47441 12.0067 3.27238 12.0106Z" fill="url(#paint0_linear_27523_56285)"/>
<path d="M212.817 10.64C213.177 10.0533 213.643 9.59334 214.217 9.26001C214.803 8.92668 215.47 8.76001 216.217 8.76001V11.7H215.477C214.597 11.7 213.93 11.9067 213.477 12.32C213.037 12.7333 212.817 13.4533 212.817 14.48V20H210.017V8.92001H212.817V10.64Z" fill="#333333"/>
<path d="M207.973 14.22C207.973 14.62 207.946 14.98 207.893 15.3H199.793C199.86 16.1 200.14 16.7267 200.633 17.18C201.126 17.6333 201.733 17.86 202.453 17.86C203.493 17.86 204.233 17.4133 204.673 16.52H207.693C207.373 17.5867 206.76 18.4667 205.853 19.16C204.946 19.84 203.833 20.18 202.513 20.18C201.446 20.18 200.486 19.9467 199.633 19.48C198.793 19 198.133 18.3267 197.653 17.46C197.186 16.5933 196.953 15.5933 196.953 14.46C196.953 13.3133 197.186 12.3067 197.653 11.44C198.12 10.5733 198.773 9.90666 199.613 9.43999C200.453 8.97332 201.42 8.73999 202.513 8.73999C203.566 8.73999 204.506 8.96666 205.333 9.41999C206.173 9.87332 206.82 10.52 207.273 11.36C207.74 12.1867 207.973 13.14 207.973 14.22ZM205.073 13.42C205.06 12.7 204.8 12.1267 204.293 11.7C203.786 11.26 203.166 11.04 202.433 11.04C201.74 11.04 201.153 11.2533 200.673 11.68C200.206 12.0933 199.92 12.6733 199.813 13.42H205.073Z" fill="#333333"/>
<path d="M192.553 20L188.793 15.28V20H185.993V5.19995H188.793V13.62L192.513 8.91995H196.153L191.273 14.48L196.193 20H192.553Z" fill="#333333"/>
<path d="M173.242 14.46C173.242 13.3133 173.475 12.3133 173.942 11.46C174.409 10.5933 175.055 9.92666 175.882 9.45999C176.709 8.97999 177.655 8.73999 178.722 8.73999C180.095 8.73999 181.229 9.08666 182.122 9.77999C183.029 10.46 183.635 11.42 183.942 12.66H180.922C180.762 12.18 180.489 11.8067 180.102 11.54C179.729 11.26 179.262 11.12 178.702 11.12C177.902 11.12 177.269 11.4133 176.802 12C176.335 12.5733 176.102 13.3933 176.102 14.46C176.102 15.5133 176.335 16.3333 176.802 16.92C177.269 17.4933 177.902 17.78 178.702 17.78C179.835 17.78 180.575 17.2733 180.922 16.26H183.942C183.635 17.46 183.029 18.4133 182.122 19.12C181.215 19.8267 180.082 20.18 178.722 20.18C177.655 20.18 176.709 19.9467 175.882 19.48C175.055 19 174.409 18.3333 173.942 17.48C173.475 16.6133 173.242 15.6067 173.242 14.46Z" fill="#333333"/>
<path d="M159.687 14.42C159.687 13.3 159.907 12.3067 160.347 11.44C160.801 10.5733 161.407 9.90666 162.167 9.43999C162.941 8.97332 163.801 8.73999 164.747 8.73999C165.574 8.73999 166.294 8.90666 166.907 9.23999C167.534 9.57332 168.034 9.99332 168.407 10.5V8.91999H171.227V20H168.407V18.38C168.047 18.9 167.547 19.3333 166.907 19.68C166.281 20.0133 165.554 20.18 164.727 20.18C163.794 20.18 162.941 19.94 162.167 19.46C161.407 18.98 160.801 18.3067 160.347 17.44C159.907 16.56 159.687 15.5533 159.687 14.42ZM168.407 14.46C168.407 13.78 168.274 13.2 168.007 12.72C167.741 12.2267 167.381 11.8533 166.927 11.6C166.474 11.3333 165.987 11.2 165.467 11.2C164.947 11.2 164.467 11.3267 164.027 11.58C163.587 11.8333 163.227 12.2067 162.947 12.7C162.681 13.18 162.547 13.7533 162.547 14.42C162.547 15.0867 162.681 15.6733 162.947 16.18C163.227 16.6733 163.587 17.0533 164.027 17.32C164.481 17.5867 164.961 17.72 165.467 17.72C165.987 17.72 166.474 17.5933 166.927 17.34C167.381 17.0733 167.741 16.7 168.007 16.22C168.274 15.7267 168.407 15.14 168.407 14.46Z" fill="#333333"/>
<path d="M155.121 10.64C155.481 10.0533 155.948 9.59334 156.521 9.26001C157.108 8.92668 157.775 8.76001 158.521 8.76001V11.7H157.781C156.901 11.7 156.235 11.9067 155.781 12.32C155.341 12.7333 155.121 13.4533 155.121 14.48V20H152.321V8.92001H155.121V10.64Z" fill="#333333"/>
<path d="M150.278 6.04004V8.30004H146.558V20H143.758V8.30004H140.038V6.04004H150.278Z" fill="#333333"/>
<path d="M133.969 14.22C133.969 14.62 133.942 14.98 133.889 15.3H125.789C125.856 16.1 126.136 16.7267 126.629 17.18C127.122 17.6333 127.729 17.86 128.449 17.86C129.489 17.86 130.229 17.4133 130.669 16.52H133.689C133.369 17.5867 132.756 18.4667 131.849 19.16C130.942 19.84 129.829 20.18 128.509 20.18C127.442 20.18 126.482 19.9467 125.629 19.48C124.789 19 124.129 18.3267 123.649 17.46C123.182 16.5933 122.949 15.5933 122.949 14.46C122.949 13.3133 123.182 12.3067 123.649 11.44C124.116 10.5733 124.769 9.90666 125.609 9.43999C126.449 8.97332 127.416 8.73999 128.509 8.73999C129.562 8.73999 130.502 8.96666 131.329 9.41999C132.169 9.87332 132.816 10.52 133.269 11.36C133.736 12.1867 133.969 13.14 133.969 14.22ZM131.069 13.42C131.056 12.7 130.796 12.1267 130.289 11.7C129.782 11.26 129.162 11.04 128.429 11.04C127.736 11.04 127.149 11.2533 126.669 11.68C126.202 12.0933 125.916 12.6733 125.809 13.42H131.069Z" fill="#333333"/>
<path d="M116.472 8.76001C117.832 8.76001 118.925 9.18001 119.752 10.02C120.592 10.8467 121.012 12.0067 121.012 13.5V20H118.212V13.88C118.212 13.0133 117.992 12.3533 117.552 11.9C117.112 11.4333 116.512 11.2 115.752 11.2C114.992 11.2 114.385 11.4333 113.932 11.9C113.492 12.3533 113.272 13.0133 113.272 13.88V20H110.472V13.88C110.472 13.0133 110.252 12.3533 109.812 11.9C109.372 11.4333 108.772 11.2 108.012 11.2C107.239 11.2 106.625 11.4333 106.172 11.9C105.732 12.3533 105.512 13.0133 105.512 13.88V20H102.712V8.92001H105.512V10.26C105.872 9.79334 106.332 9.42668 106.892 9.16001C107.465 8.89334 108.092 8.76001 108.772 8.76001C109.639 8.76001 110.412 8.94668 111.092 9.32001C111.772 9.68001 112.299 10.2 112.672 10.88C113.032 10.24 113.552 9.72668 114.232 9.34001C114.925 8.95334 115.672 8.76001 116.472 8.76001Z" fill="#333333"/>
<path d="M100.668 14.22C100.668 14.62 100.642 14.98 100.588 15.3H92.4882C92.5549 16.1 92.8349 16.7267 93.3282 17.18C93.8215 17.6333 94.4282 17.86 95.1482 17.86C96.1882 17.86 96.9282 17.4133 97.3682 16.52H100.388C100.068 17.5867 99.4549 18.4667 98.5482 19.16C97.6415 19.84 96.5282 20.18 95.2082 20.18C94.1415 20.18 93.1815 19.9467 92.3282 19.48C91.4882 19 90.8282 18.3267 90.3482 17.46C89.8815 16.5933 89.6482 15.5933 89.6482 14.46C89.6482 13.3133 89.8815 12.3067 90.3482 11.44C90.8149 10.5733 91.4682 9.90666 92.3082 9.43999C93.1482 8.97332 94.1149 8.73999 95.2082 8.73999C96.2615 8.73999 97.2015 8.96666 98.0282 9.41999C98.8682 9.87332 99.5149 10.52 99.9682 11.36C100.435 12.1867 100.668 13.14 100.668 14.22ZM97.7682 13.42C97.7549 12.7 97.4949 12.1267 96.9882 11.7C96.4815 11.26 95.8615 11.04 95.1282 11.04C94.4349 11.04 93.8482 11.2533 93.3682 11.68C92.9015 12.0933 92.6149 12.6733 92.5082 13.42H97.7682Z" fill="#333333"/>
<path d="M87.5999 6.04004V20H84.7999V10.92L81.0599 20H78.9399L75.1799 10.92V20H72.3799V6.04004H75.5599L79.9999 16.42L84.4399 6.04004H87.5999Z" fill="#333333"/>
<defs>
<linearGradient id="paint0_linear_27523_56285" x1="29.9749" y1="-11.9986" x2="13.4656" y2="29.4145" gradientUnits="userSpaceOnUse">
<stop stop-color="#00FF8F"/>
<stop offset="0.986175" stop-color="#00A1FF"/>
</linearGradient>
</defs>
</svg>
